<svg width="20" height="20" viewBox="0 0 20 20" fill="none" xmlns="http://www.w3.org/2000/svg">
<g clip-path="url(#clip0_2_354)">
<path d="M2.8302 15.1072V4.70412C2.8302 4.091 3.07376 3.50299 3.50731 3.06944C3.94085 2.6359 4.52886 2.39233 5.14199 2.39233H15.9303C16.1347 2.39233 16.3307 2.47352 16.4752 2.61804C16.6197 2.76255 16.7009 2.95856 16.7009 3.16293V17.0337C16.7009 17.238 16.6197 17.434 16.4752 17.5785C16.3307 17.7231 16.1347 17.8042 15.9303 17.8042H5.52729C4.81197 17.8042 4.12596 17.5201 3.62016 17.0143C3.11436 16.5085 2.8302 15.8225 2.8302 15.1072ZM15.1597 16.2631V13.9513H5.52729C5.22072 13.9513 4.92672 14.0731 4.70995 14.2898C4.49317 14.5066 4.37139 14.8006 4.37139 15.1072C4.37139 15.4137 4.49317 15.7077 4.70995 15.9245C4.92672 16.1413 5.22072 16.2631 5.52729 16.2631H15.1597ZM4.37139 12.6698C4.73256 12.4983 5.12746 12.4095 5.52729 12.4101H15.1597V3.93353H5.14199C4.93761 3.93353 4.74161 4.01471 4.59709 4.15923C4.45258 4.30374 4.37139 4.49975 4.37139 4.70412V12.6698Z" fill="white"/>
</g>
<defs>
<clipPath id="clip0_2_354">
<rect width="18.4943" height="18.4943" fill="white" transform="translate(0.518433 0.851318)"/>
</clipPath>
</defs>
</svg>
